<svg width="60" height="60" viewBox="0 0 60 60" fill="none" xmlns="http://www.w3.org/2000/svg">
<g id="icon">
<g id="shield">
<path id="Path" d="M41.2085 12.0303L21.2475 6.04203C21.0606 5.98607 20.8614 5.98607 20.6746 6.04203L0.713585 12.0303C0.290848 12.1566 0.00107013 12.5453 0.000976562 12.9865V34.9436C0.000976562 43.7684 13.4587 51.6191 20.6646 53.8627C20.8596 53.9239 21.0686 53.9239 21.2635 53.8627C28.4614 51.619 41.9191 43.7683 41.9191 34.9436V12.9864C41.9192 12.5458 41.6304 12.1572 41.2085 12.0303Z" fill="#FF0043"/>
<path id="Path_2" d="M18.9638 37.9377C18.6989 37.9382 18.4447 37.8334 18.2572 37.6462L10.2728 29.6618C9.88994 29.2654 9.90089 28.6335 10.2973 28.2506C10.6841 27.8771 11.2973 27.8771 11.684 28.2506L18.9638 35.5283L32.2299 22.2623C32.6128 21.8658 33.2446 21.8548 33.6411 22.2378C34.0376 22.6207 34.0485 23.2525 33.6657 23.649C33.6576 23.6574 33.6495 23.6655 33.6411 23.6735L19.6685 37.6462C19.4814 37.8328 19.228 37.9376 18.9638 37.9377Z" fill="#FAFAFA"/>
</g>
</g>
</svg>
