<svg width="57" height="50" viewBox="0 0 57 50" fill="none" xmlns="http://www.w3.org/2000/svg">
<g id="chat">
<path id="Shape" fill-rule="evenodd" clip-rule="evenodd" d="M55.1605 -0.000442505H21.2841C20.361 -0.000442505 19.6126 0.747957 19.6126 1.67109V13.3718H1.67153C0.748399 13.3718 0 14.1202 0 15.0433V48.0282C0 49.2759 1.31683 50.0742 2.41904 49.5233L14.5469 43.4593H35.5479C36.471 43.4593 37.2194 42.7109 37.2194 41.7878V30.0871H42.2851L54.413 36.1511C55.5158 36.7026 56.832 35.9031 56.832 34.6559V1.67109C56.832 0.747957 56.0836 -0.000442505 55.1605 -0.000442505ZM33.8763 40.1163H14.1523C13.8927 40.1163 13.6369 40.1767 13.4048 40.2927L3.34306 45.3236V16.7149H19.6126V28.4156C19.6126 29.3387 20.361 30.0871 21.2841 30.0871H33.8763V40.1163ZM43.4272 26.9205L53.4889 31.9514V3.34273H22.9557V26.7441H42.6797C42.9393 26.7441 43.1951 26.8044 43.4272 26.9205Z" fill="#FF0043"/>
<path id="Path" d="M14.1523 32.9844H8.80337C7.88024 32.9844 7.13184 33.7328 7.13184 34.6559C7.13184 35.5791 7.88024 36.3275 8.80337 36.3275H14.1523C15.0754 36.3275 15.8238 35.5791 15.8238 34.6559C15.8238 33.7328 15.0754 32.9844 14.1523 32.9844Z" fill="#FF0043"/>
<path id="Path_2" d="M8.80337 30.0871H11.4778C12.4009 30.0871 13.1493 29.3387 13.1493 28.4155C13.1493 27.4924 12.4009 26.744 11.4778 26.744H8.80337C7.88024 26.744 7.13184 27.4924 7.13184 28.4155C7.13184 29.3387 7.88024 30.0871 8.80337 30.0871Z" fill="#FF0043"/>
<path id="Path_3" d="M8.80337 23.8467H11.4778C12.4009 23.8467 13.1493 23.0983 13.1493 22.1752C13.1493 21.252 12.4009 20.5036 11.4778 20.5036H8.80337C7.88024 20.5036 7.13184 21.252 7.13184 22.1752C7.13184 23.0983 7.88024 23.8467 8.80337 23.8467Z" fill="#FF0043"/>
<path id="Shape_2" fill-rule="evenodd" clip-rule="evenodd" d="M38.2275 9.75862C40.4808 7.50684 43.7723 7.73907 45.7131 9.67983C47.7603 11.7268 47.76 15.04 45.713 17.0866L39.4093 23.3903C38.7566 24.0431 37.6981 24.0429 37.0455 23.3903L30.7418 17.0866C28.6946 15.0396 28.695 11.7265 30.7418 9.67972C32.6861 7.73551 35.9785 7.51119 38.2275 9.75862ZM38.2275 19.8445L43.3493 14.7228C44.0897 13.9823 44.0896 12.7841 43.3494 12.0436C42.6109 11.3051 41.4091 11.305 40.6702 12.0436L38.6214 14.0912C38.403 14.3085 38.0508 14.3085 37.8324 14.0912L35.7848 12.0436C35.046 11.305 33.8444 11.305 33.1057 12.0436C32.3652 12.7841 32.3653 13.9825 33.1057 14.7227L38.2275 19.8445Z" fill="#FF0043"/>
</g>
</svg>
