<svg width="249" height="249" viewBox="0 0 249 249" fill="none" xmlns="http://www.w3.org/2000/svg">
<g id="Oval" opacity="0.348958">
<mask id="mask0_0_111" style="mask-type:luminance" maskUnits="userSpaceOnUse" x="0" y="0" width="249" height="249">
<path id="Duplicate control" fill-rule="evenodd" clip-rule="evenodd" d="M0 0L248.945 0L248.945 248.945L0 248.945L0 0Z" fill="white"/>
</mask>
<g mask="url(#mask0_0_111)">
<circle id="Oval_2" cx="3.43035" cy="3.43035" r="3.43035" fill="#E0E0E0"/>
<circle id="Oval_3" cx="3.43035" cy="15.1916" r="3.43035" fill="#E0E0E0"/>
<circle id="Oval_4" cx="3.43035" cy="27.9328" r="3.43035" fill="#E0E0E0"/>
<circle id="Oval_5" cx="3.43035" cy="40.6741" r="3.43035" fill="#E0E0E0"/>
<circle id="Oval_6" cx="3.43035" cy="52.4354" r="3.43035" fill="#E0E0E0"/>
<circle id="Oval_7" cx="3.43035" cy="65.1767" r="3.43035" fill="#E0E0E0"/>
<circle id="Oval_8" cx="3.43035" cy="77.9179" r="3.43035" fill="#E0E0E0"/>
<circle id="Oval_9" cx="3.43035" cy="90.6592" r="3.43035" fill="#E0E0E0"/>
<circle id="Oval_10" cx="3.43035" cy="102.42" r="3.43035" fill="#E0E0E0"/>
<circle id="Oval_11" cx="3.43035" cy="115.162" r="3.43035" fill="#E0E0E0"/>
<circle id="Oval_12" cx="3.43035" cy="127.903" r="3.43035" fill="#E0E0E0"/>
<circle id="Oval_13" cx="3.43035" cy="139.664" r="3.43035" fill="#E0E0E0"/>
<circle id="Oval_14" cx="3.43035" cy="152.406" r="3.43035" fill="#E0E0E0"/>
<circle id="Oval_15" cx="3.43035" cy="165.147" r="3.43035" fill="#E0E0E0"/>
<circle id="Oval_16" cx="3.43035" cy="176.908" r="3.43035" fill="#E0E0E0"/>
<circle id="Oval_17" cx="3.43035" cy="189.649" r="3.43035" fill="#E0E0E0"/>
<circle id="Oval_18" cx="3.43035" cy="202.391" r="3.43035" fill="#E0E0E0"/>
<circle id="Oval_19" cx="3.43035" cy="215.132" r="3.43035" fill="#E0E0E0"/>
<circle id="Oval_20" cx="3.43035" cy="226.893" r="3.43035" fill="#E0E0E0"/>
<circle id="Oval_21" cx="3.43035" cy="239.634" r="3.43035" fill="#E0E0E0"/>
<circle id="Oval_22" cx="15.1916" cy="3.43035" r="3.43035" fill="#E0E0E0"/>
<circle id="Oval_23" cx="15.1916" cy="15.1916" r="3.43035" fill="#E0E0E0"/>
<circle id="Oval_24" cx="15.1916" cy="27.9328" r="3.43035" fill="#E0E0E0"/>
<circle id="Oval_25" cx="15.1916" cy="40.6741" r="3.43035" fill="#E0E0E0"/>
<circle id="Oval_26" cx="15.1916" cy="52.4354" r="3.43035" fill="#E0E0E0"/>
<circle id="Oval_27" cx="15.1916" cy="65.1767" r="3.43035" fill="#E0E0E0"/>
<circle id="Oval_28" cx="15.1916" cy="77.9179" r="3.43035" fill="#E0E0E0"/>
<circle id="Oval_29" cx="15.1916" cy="90.6592" r="3.43035" fill="#E0E0E0"/>
<circle id="Oval_30" cx="15.1916" cy="102.42" r="3.43035" fill="#E0E0E0"/>
<circle id="Oval_31" cx="15.1916" cy="115.162" r="3.43035" fill="#E0E0E0"/>
<circle id="Oval_32" cx="15.1916" cy="127.903" r="3.43035" fill="#E0E0E0"/>
<circle id="Oval_33" cx="15.1916" cy="139.664" r="3.43035" fill="#E0E0E0"/>
<circle id="Oval_34" cx="15.1916" cy="152.406" r="3.43035" fill="#E0E0E0"/>
<circle id="Oval_35" cx="15.1916" cy="165.147" r="3.43035" fill="#E0E0E0"/>
<circle id="Oval_36" cx="15.1916" cy="176.908" r="3.43035" fill="#E0E0E0"/>
<circle id="Oval_37" cx="15.1916" cy="189.649" r="3.43035" fill="#E0E0E0"/>
<circle id="Oval_38" cx="15.1916" cy="202.391" r="3.43035" fill="#E0E0E0"/>
<circle id="Oval_39" cx="15.1916" cy="215.132" r="3.43035" fill="#E0E0E0"/>
<circle id="Oval_40" cx="15.1916" cy="226.893" r="3.43035" fill="#E0E0E0"/>
<circle id="Oval_41" cx="15.1916" cy="239.634" r="3.43035" fill="#E0E0E0"/>
<circle id="Oval_42" cx="27.9328" cy="3.43035" r="3.43035" fill="#E0E0E0"/>
<circle id="Oval_43" cx="27.9328" cy="15.1916" r="3.43035" fill="#E0E0E0"/>
<circle id="Oval_44" cx="27.9328" cy="27.9328" r="3.43035" fill="#E0E0E0"/>
<circle id="Oval_45" cx="27.9328" cy="40.6741" r="3.43035" fill="#E0E0E0"/>
<circle id="Oval_46" cx="27.9328" cy="52.4354" r="3.43035" fill="#E0E0E0"/>
<circle id="Oval_47" cx="27.9328" cy="65.1767" r="3.43035" fill="#E0E0E0"/>
<circle id="Oval_48" cx="27.9328" cy="77.9179" r="3.43035" fill="#E0E0E0"/>
<circle id="Oval_49" cx="27.9328" cy="90.6592" r="3.43035" fill="#E0E0E0"/>
<circle id="Oval_50" cx="27.9328" cy="102.42" r="3.43035" fill="#E0E0E0"/>
<circle id="Oval_51" cx="27.9328" cy="115.162" r="3.43035" fill="#E0E0E0"/>
<circle id="Oval_52" cx="27.9328" cy="127.903" r="3.43035" fill="#E0E0E0"/>
<circle id="Oval_53" cx="27.9328" cy="139.664" r="3.43035" fill="#E0E0E0"/>
<circle id="Oval_54" cx="27.9328" cy="152.406" r="3.43035" fill="#E0E0E0"/>
<circle id="Oval_55" cx="27.9328" cy="165.147" r="3.43035" fill="#E0E0E0"/>
<circle id="Oval_56" cx="27.9328" cy="176.908" r="3.43035" fill="#E0E0E0"/>
<circle id="Oval_57" cx="27.9328" cy="189.649" r="3.43035" fill="#E0E0E0"/>
<circle id="Oval_58" cx="27.9328" cy="202.391" r="3.43035" fill="#E0E0E0"/>
<circle id="Oval_59" cx="27.9328" cy="215.132" r="3.43035" fill="#E0E0E0"/>
<circle id="Oval_60" cx="27.9328" cy="226.893" r="3.43035" fill="#E0E0E0"/>
<circle id="Oval_61" cx="27.9328" cy="239.634" r="3.43035" fill="#E0E0E0"/>
<circle id="Oval_62" cx="40.674" cy="3.43035" r="3.43035" fill="#E0E0E0"/>
<circle id="Oval_63" cx="40.674" cy="15.1916" r="3.43035" fill="#E0E0E0"/>
<circle id="Oval_64" cx="40.674" cy="27.9328" r="3.43035" fill="#E0E0E0"/>
<circle id="Oval_65" cx="40.674" cy="40.6741" r="3.43035" fill="#E0E0E0"/>
<circle id="Oval_66" cx="40.674" cy="52.4354" r="3.43035" fill="#E0E0E0"/>
<circle id="Oval_67" cx="40.674" cy="65.1767" r="3.43035" fill="#E0E0E0"/>
<circle id="Oval_68" cx="40.674" cy="77.9179" r="3.43035" fill="#E0E0E0"/>
<circle id="Oval_69" cx="40.674" cy="90.6592" r="3.43035" fill="#E0E0E0"/>
<circle id="Oval_70" cx="40.674" cy="102.42" r="3.43035" fill="#E0E0E0"/>
<circle id="Oval_71" cx="40.674" cy="115.162" r="3.43035" fill="#E0E0E0"/>
<circle id="Oval_72" cx="40.674" cy="127.903" r="3.43035" fill="#E0E0E0"/>
<circle id="Oval_73" cx="40.674" cy="139.664" r="3.43035" fill="#E0E0E0"/>
<circle id="Oval_74" cx="40.674" cy="152.406" r="3.43035" fill="#E0E0E0"/>
<circle id="Oval_75" cx="40.674" cy="165.147" r="3.43035" fill="#E0E0E0"/>
<circle id="Oval_76" cx="40.674" cy="176.908" r="3.43035" fill="#E0E0E0"/>
<circle id="Oval_77" cx="40.674" cy="189.649" r="3.43035" fill="#E0E0E0"/>
<circle id="Oval_78" cx="40.674" cy="202.391" r="3.43035" fill="#E0E0E0"/>
<circle id="Oval_79" cx="40.674" cy="215.132" r="3.43035" fill="#E0E0E0"/>
<circle id="Oval_80" cx="40.674" cy="226.893" r="3.43035" fill="#E0E0E0"/>
<circle id="Oval_81" cx="40.674" cy="239.634" r="3.43035" fill="#E0E0E0"/>
<circle id="Oval_82" cx="52.4352" cy="3.43035" r="3.43035" fill="#E0E0E0"/>
<circle id="Oval_83" cx="52.4352" cy="15.1916" r="3.43035" fill="#E0E0E0"/>
<circle id="Oval_84" cx="52.4352" cy="27.9328" r="3.43035" fill="#E0E0E0"/>
<circle id="Oval_85" cx="52.4352" cy="40.6741" r="3.43035" fill="#E0E0E0"/>
<circle id="Oval_86" cx="52.4352" cy="52.4354" r="3.43035" fill="#E0E0E0"/>
<circle id="Oval_87" cx="52.4352" cy="65.1767" r="3.43035" fill="#E0E0E0"/>
<circle id="Oval_88" cx="52.4352" cy="77.9179" r="3.43035" fill="#E0E0E0"/>
<circle id="Oval_89" cx="52.4352" cy="90.6592" r="3.43035" fill="#E0E0E0"/>
<circle id="Oval_90" cx="52.4352" cy="102.42" r="3.43035" fill="#E0E0E0"/>
<circle id="Oval_91" cx="52.4352" cy="115.162" r="3.43035" fill="#E0E0E0"/>
<circle id="Oval_92" cx="52.4352" cy="127.903" r="3.43035" fill="#E0E0E0"/>
<circle id="Oval_93" cx="52.4352" cy="139.664" r="3.43035" fill="#E0E0E0"/>
<circle id="Oval_94" cx="52.4352" cy="152.406" r="3.43035" fill="#E0E0E0"/>
<circle id="Oval_95" cx="52.4352" cy="165.147" r="3.43035" fill="#E0E0E0"/>
<circle id="Oval_96" cx="52.4352" cy="176.908" r="3.43035" fill="#E0E0E0"/>
<circle id="Oval_97" cx="52.4352" cy="189.649" r="3.43035" fill="#E0E0E0"/>
<circle id="Oval_98" cx="52.4352" cy="202.391" r="3.43035" fill="#E0E0E0"/>
<circle id="Oval_99" cx="52.4352" cy="215.132" r="3.43035" fill="#E0E0E0"/>
<circle id="Oval_100" cx="52.4352" cy="226.893" r="3.43035" fill="#E0E0E0"/>
<circle id="Oval_101" cx="52.4352" cy="239.634" r="3.43035" fill="#E0E0E0"/>
<circle id="Oval_102" cx="65.1764" cy="3.43035" r="3.43035" fill="#E0E0E0"/>
<circle id="Oval_103" cx="65.1764" cy="15.1916" r="3.43035" fill="#E0E0E0"/>
<circle id="Oval_104" cx="65.1764" cy="27.9328" r="3.43035" fill="#E0E0E0"/>
<circle id="Oval_105" cx="65.1764" cy="40.6741" r="3.43035" fill="#E0E0E0"/>
<circle id="Oval_106" cx="65.1764" cy="52.4354" r="3.43035" fill="#E0E0E0"/>
<circle id="Oval_107" cx="65.1764" cy="65.1767" r="3.43035" fill="#E0E0E0"/>
<circle id="Oval_108" cx="65.1764" cy="77.9179" r="3.43035" fill="#E0E0E0"/>
<circle id="Oval_109" cx="65.1764" cy="90.6592" r="3.43035" fill="#E0E0E0"/>
<circle id="Oval_110" cx="65.1764" cy="102.42" r="3.43035" fill="#E0E0E0"/>
<circle id="Oval_111" cx="65.1764" cy="115.162" r="3.43035" fill="#E0E0E0"/>
<circle id="Oval_112" cx="65.1764" cy="127.903" r="3.43035" fill="#E0E0E0"/>
<circle id="Oval_113" cx="65.1764" cy="139.664" r="3.43035" fill="#E0E0E0"/>
<circle id="Oval_114" cx="65.1764" cy="152.406" r="3.43035" fill="#E0E0E0"/>
<circle id="Oval_115" cx="65.1764" cy="165.147" r="3.43035" fill="#E0E0E0"/>
<circle id="Oval_116" cx="65.1764" cy="176.908" r="3.43035" fill="#E0E0E0"/>
<circle id="Oval_117" cx="65.1764" cy="189.649" r="3.43035" fill="#E0E0E0"/>
<circle id="Oval_118" cx="65.1764" cy="202.391" r="3.43035" fill="#E0E0E0"/>
<circle id="Oval_119" cx="65.1764" cy="215.132" r="3.43035" fill="#E0E0E0"/>
<circle id="Oval_120" cx="65.1764" cy="226.893" r="3.43035" fill="#E0E0E0"/>
<circle id="Oval_121" cx="65.1764" cy="239.634" r="3.43035" fill="#E0E0E0"/>
<circle id="Oval_122" cx="77.9181" cy="3.43035" r="3.43035" fill="#E0E0E0"/>
<circle id="Oval_123" cx="77.9181" cy="15.1916" r="3.43035" fill="#E0E0E0"/>
<circle id="Oval_124" cx="77.9181" cy="27.9328" r="3.43035" fill="#E0E0E0"/>
<circle id="Oval_125" cx="77.9181" cy="40.6741" r="3.43035" fill="#E0E0E0"/>
<circle id="Oval_126" cx="77.9181" cy="52.4354" r="3.43035" fill="#E0E0E0"/>
<circle id="Oval_127" cx="77.9181" cy="65.1767" r="3.43035" fill="#E0E0E0"/>
<circle id="Oval_128" cx="77.9181" cy="77.9179" r="3.43035" fill="#E0E0E0"/>
<circle id="Oval_129" cx="77.9181" cy="90.6592" r="3.43035" fill="#E0E0E0"/>
<circle id="Oval_130" cx="77.9181" cy="102.42" r="3.43035" fill="#E0E0E0"/>
<circle id="Oval_131" cx="77.9181" cy="115.162" r="3.43035" fill="#E0E0E0"/>
<circle id="Oval_132" cx="77.9181" cy="127.903" r="3.43035" fill="#E0E0E0"/>
<circle id="Oval_133" cx="77.9181" cy="139.664" r="3.43035" fill="#E0E0E0"/>
<circle id="Oval_134" cx="77.9181" cy="152.406" r="3.43035" fill="#E0E0E0"/>
<circle id="Oval_135" cx="77.9181" cy="165.147" r="3.43035" fill="#E0E0E0"/>
<circle id="Oval_136" cx="77.9181" cy="176.908" r="3.43035" fill="#E0E0E0"/>
<circle id="Oval_137" cx="77.9181" cy="189.649" r="3.43035" fill="#E0E0E0"/>
<circle id="Oval_138" cx="77.9181" cy="202.391" r="3.43035" fill="#E0E0E0"/>
<circle id="Oval_139" cx="77.9181" cy="215.132" r="3.43035" fill="#E0E0E0"/>
<circle id="Oval_140" cx="77.9181" cy="226.893" r="3.43035" fill="#E0E0E0"/>
<circle id="Oval_141" cx="77.9181" cy="239.634" r="3.43035" fill="#E0E0E0"/>
<circle id="Oval_142" cx="90.6594" cy="3.43035" r="3.43035" fill="#E0E0E0"/>
<circle id="Oval_143" cx="90.6594" cy="15.1916" r="3.43035" fill="#E0E0E0"/>
<circle id="Oval_144" cx="90.6594" cy="27.9328" r="3.43035" fill="#E0E0E0"/>
<circle id="Oval_145" cx="90.6594" cy="40.6741" r="3.43035" fill="#E0E0E0"/>
<circle id="Oval_146" cx="90.6594" cy="52.4354" r="3.43035" fill="#E0E0E0"/>
<circle id="Oval_147" cx="90.6594" cy="65.1767" r="3.43035" fill="#E0E0E0"/>
<circle id="Oval_148" cx="90.6594" cy="77.9179" r="3.43035" fill="#E0E0E0"/>
<circle id="Oval_149" cx="90.6594" cy="90.6592" r="3.43035" fill="#E0E0E0"/>
<circle id="Oval_150" cx="90.6594" cy="102.42" r="3.43035" fill="#E0E0E0"/>
<circle id="Oval_151" cx="90.6594" cy="115.162" r="3.43035" fill="#E0E0E0"/>
<circle id="Oval_152" cx="90.6594" cy="127.903" r="3.43035" fill="#E0E0E0"/>
<circle id="Oval_153" cx="90.6594" cy="139.664" r="3.43035" fill="#E0E0E0"/>
<circle id="Oval_154" cx="90.6594" cy="152.406" r="3.43035" fill="#E0E0E0"/>
<circle id="Oval_155" cx="90.6594" cy="165.147" r="3.43035" fill="#E0E0E0"/>
<circle id="Oval_156" cx="90.6594" cy="176.908" r="3.43035" fill="#E0E0E0"/>
<circle id="Oval_157" cx="90.6594" cy="189.649" r="3.43035" fill="#E0E0E0"/>
<circle id="Oval_158" cx="90.6594" cy="202.391" r="3.43035" fill="#E0E0E0"/>
<circle id="Oval_159" cx="90.6594" cy="215.132" r="3.43035" fill="#E0E0E0"/>
<circle id="Oval_160" cx="90.6594" cy="226.893" r="3.43035" fill="#E0E0E0"/>
<circle id="Oval_161" cx="90.6594" cy="239.634" r="3.43035" fill="#E0E0E0"/>
<circle id="Oval_162" cx="102.421" cy="3.43035" r="3.43035" fill="#E0E0E0"/>
<circle id="Oval_163" cx="102.421" cy="15.1916" r="3.43035" fill="#E0E0E0"/>
<circle id="Oval_164" cx="102.421" cy="27.9328" r="3.43035" fill="#E0E0E0"/>
<circle id="Oval_165" cx="102.421" cy="40.6741" r="3.43035" fill="#E0E0E0"/>
<circle id="Oval_166" cx="102.421" cy="52.4354" r="3.43035" fill="#E0E0E0"/>
<circle id="Oval_167" cx="102.421" cy="65.1767" r="3.43035" fill="#E0E0E0"/>
<circle id="Oval_168" cx="102.421" cy="77.9179" r="3.43035" fill="#E0E0E0"/>
<circle id="Oval_169" cx="102.421" cy="90.6592" r="3.43035" fill="#E0E0E0"/>
<circle id="Oval_170" cx="102.421" cy="102.42" r="3.43035" fill="#E0E0E0"/>
<circle id="Oval_171" cx="102.421" cy="115.162" r="3.43035" fill="#E0E0E0"/>
<circle id="Oval_172" cx="102.421" cy="127.903" r="3.43035" fill="#E0E0E0"/>
<circle id="Oval_173" cx="102.421" cy="139.664" r="3.43035" fill="#E0E0E0"/>
<circle id="Oval_174" cx="102.421" cy="152.406" r="3.43035" fill="#E0E0E0"/>
<circle id="Oval_175" cx="102.421" cy="165.147" r="3.43035" fill="#E0E0E0"/>
<circle id="Oval_176" cx="102.421" cy="176.908" r="3.43035" fill="#E0E0E0"/>
<circle id="Oval_177" cx="102.421" cy="189.649" r="3.43035" fill="#E0E0E0"/>
<circle id="Oval_178" cx="102.421" cy="202.391" r="3.43035" fill="#E0E0E0"/>
<circle id="Oval_179" cx="102.421" cy="215.132" r="3.43035" fill="#E0E0E0"/>
<circle id="Oval_180" cx="102.421" cy="226.893" r="3.43035" fill="#E0E0E0"/>
<circle id="Oval_181" cx="102.421" cy="239.634" r="3.43035" fill="#E0E0E0"/>
<circle id="Oval_182" cx="115.162" cy="3.43035" r="3.43035" fill="#E0E0E0"/>
<circle id="Oval_183" cx="115.162" cy="15.1916" r="3.43035" fill="#E0E0E0"/>
<circle id="Oval_184" cx="115.162" cy="27.9328" r="3.43035" fill="#E0E0E0"/>
<circle id="Oval_185" cx="115.162" cy="40.6741" r="3.43035" fill="#E0E0E0"/>
<circle id="Oval_186" cx="115.162" cy="52.4354" r="3.43035" fill="#E0E0E0"/>
<circle id="Oval_187" cx="115.162" cy="65.1767" r="3.43035" fill="#E0E0E0"/>
<circle id="Oval_188" cx="115.162" cy="77.9179" r="3.43035" fill="#E0E0E0"/>
<circle id="Oval_189" cx="115.162" cy="90.6592" r="3.43035" fill="#E0E0E0"/>
<circle id="Oval_190" cx="115.162" cy="102.42" r="3.43035" fill="#E0E0E0"/>
<circle id="Oval_191" cx="115.162" cy="115.162" r="3.43035" fill="#E0E0E0"/>
<circle id="Oval_192" cx="115.162" cy="127.903" r="3.43035" fill="#E0E0E0"/>
<circle id="Oval_193" cx="115.162" cy="139.664" r="3.43035" fill="#E0E0E0"/>
<circle id="Oval_194" cx="115.162" cy="152.406" r="3.43035" fill="#E0E0E0"/>
<circle id="Oval_195" cx="115.162" cy="165.147" r="3.43035" fill="#E0E0E0"/>
<circle id="Oval_196" cx="115.162" cy="176.908" r="3.43035" fill="#E0E0E0"/>
<circle id="Oval_197" cx="115.162" cy="189.649" r="3.43035" fill="#E0E0E0"/>
<circle id="Oval_198" cx="115.162" cy="202.391" r="3.43035" fill="#E0E0E0"/>
<circle id="Oval_199" cx="115.162" cy="215.132" r="3.43035" fill="#E0E0E0"/>
<circle id="Oval_200" cx="115.162" cy="226.893" r="3.43035" fill="#E0E0E0"/>
<circle id="Oval_201" cx="115.162" cy="239.634" r="3.43035" fill="#E0E0E0"/>
<circle id="Oval_202" cx="127.903" cy="3.43035" r="3.43035" fill="#E0E0E0"/>
<circle id="Oval_203" cx="127.903" cy="15.1916" r="3.43035" fill="#E0E0E0"/>
<circle id="Oval_204" cx="127.903" cy="27.9328" r="3.43035" fill="#E0E0E0"/>
<circle id="Oval_205" cx="127.903" cy="40.6741" r="3.43035" fill="#E0E0E0"/>
<circle id="Oval_206" cx="127.903" cy="52.4354" r="3.43035" fill="#E0E0E0"/>
<circle id="Oval_207" cx="127.903" cy="65.1767" r="3.43035" fill="#E0E0E0"/>
<circle id="Oval_208" cx="127.903" cy="77.9179" r="3.43035" fill="#E0E0E0"/>
<circle id="Oval_209" cx="127.903" cy="90.6592" r="3.43035" fill="#E0E0E0"/>
<circle id="Oval_210" cx="127.903" cy="102.42" r="3.43035" fill="#E0E0E0"/>
<circle id="Oval_211" cx="127.903" cy="115.162" r="3.43035" fill="#E0E0E0"/>
<circle id="Oval_212" cx="127.903" cy="127.903" r="3.43035" fill="#E0E0E0"/>
<circle id="Oval_213" cx="127.903" cy="139.664" r="3.43035" fill="#E0E0E0"/>
<circle id="Oval_214" cx="127.903" cy="152.406" r="3.43035" fill="#E0E0E0"/>
<circle id="Oval_215" cx="127.903" cy="165.147" r="3.43035" fill="#E0E0E0"/>
<circle id="Oval_216" cx="127.903" cy="176.908" r="3.43035" fill="#E0E0E0"/>
<circle id="Oval_217" cx="127.903" cy="189.649" r="3.43035" fill="#E0E0E0"/>
<circle id="Oval_218" cx="127.903" cy="202.391" r="3.43035" fill="#E0E0E0"/>
<circle id="Oval_219" cx="127.903" cy="215.132" r="3.43035" fill="#E0E0E0"/>
<circle id="Oval_220" cx="127.903" cy="226.893" r="3.43035" fill="#E0E0E0"/>
<circle id="Oval_221" cx="127.903" cy="239.634" r="3.43035" fill="#E0E0E0"/>
<circle id="Oval_222" cx="139.664" cy="3.43035" r="3.43035" fill="#E0E0E0"/>
<circle id="Oval_223" cx="139.664" cy="15.1916" r="3.43035" fill="#E0E0E0"/>
<circle id="Oval_224" cx="139.664" cy="27.9328" r="3.43035" fill="#E0E0E0"/>
<circle id="Oval_225" cx="139.664" cy="40.6741" r="3.43035" fill="#E0E0E0"/>
<circle id="Oval_226" cx="139.664" cy="52.4354" r="3.43035" fill="#E0E0E0"/>
<circle id="Oval_227" cx="139.664" cy="65.1767" r="3.43035" fill="#E0E0E0"/>
<circle id="Oval_228" cx="139.664" cy="77.9179" r="3.43035" fill="#E0E0E0"/>
<circle id="Oval_229" cx="139.664" cy="90.6592" r="3.43035" fill="#E0E0E0"/>
<circle id="Oval_230" cx="139.664" cy="102.42" r="3.43035" fill="#E0E0E0"/>
<circle id="Oval_231" cx="139.664" cy="115.162" r="3.43035" fill="#E0E0E0"/>
<circle id="Oval_232" cx="139.664" cy="127.903" r="3.43035" fill="#E0E0E0"/>
<circle id="Oval_233" cx="139.664" cy="139.664" r="3.43035" fill="#E0E0E0"/>
<circle id="Oval_234" cx="139.664" cy="152.406" r="3.43035" fill="#E0E0E0"/>
<circle id="Oval_235" cx="139.664" cy="165.147" r="3.43035" fill="#E0E0E0"/>
<circle id="Oval_236" cx="139.664" cy="176.908" r="3.43035" fill="#E0E0E0"/>
<circle id="Oval_237" cx="139.664" cy="189.649" r="3.43035" fill="#E0E0E0"/>
<circle id="Oval_238" cx="139.664" cy="202.391" r="3.43035" fill="#E0E0E0"/>
<circle id="Oval_239" cx="139.664" cy="215.132" r="3.43035" fill="#E0E0E0"/>
<circle id="Oval_240" cx="139.664" cy="226.893" r="3.43035" fill="#E0E0E0"/>
<circle id="Oval_241" cx="139.664" cy="239.634" r="3.43035" fill="#E0E0E0"/>
<circle id="Oval_242" cx="152.405" cy="3.43035" r="3.43035" fill="#E0E0E0"/>
<circle id="Oval_243" cx="152.405" cy="15.1916" r="3.43035" fill="#E0E0E0"/>
<circle id="Oval_244" cx="152.405" cy="27.9328" r="3.43035" fill="#E0E0E0"/>
<circle id="Oval_245" cx="152.405" cy="40.6741" r="3.43035" fill="#E0E0E0"/>
<circle id="Oval_246" cx="152.405" cy="52.4354" r="3.43035" fill="#E0E0E0"/>
<circle id="Oval_247" cx="152.405" cy="65.1767" r="3.43035" fill="#E0E0E0"/>
<circle id="Oval_248" cx="152.405" cy="77.9179" r="3.43035" fill="#E0E0E0"/>
<circle id="Oval_249" cx="152.405" cy="90.6592" r="3.43035" fill="#E0E0E0"/>
<circle id="Oval_250" cx="152.405" cy="102.42" r="3.43035" fill="#E0E0E0"/>
<circle id="Oval_251" cx="152.405" cy="115.162" r="3.43035" fill="#E0E0E0"/>
<circle id="Oval_252" cx="152.405" cy="127.903" r="3.43035" fill="#E0E0E0"/>
<circle id="Oval_253" cx="152.405" cy="139.664" r="3.43035" fill="#E0E0E0"/>
<circle id="Oval_254" cx="152.405" cy="152.406" r="3.43035" fill="#E0E0E0"/>
<circle id="Oval_255" cx="152.405" cy="165.147" r="3.43035" fill="#E0E0E0"/>
<circle id="Oval_256" cx="152.405" cy="176.908" r="3.43035" fill="#E0E0E0"/>
<circle id="Oval_257" cx="152.405" cy="189.649" r="3.43035" fill="#E0E0E0"/>
<circle id="Oval_258" cx="152.405" cy="202.391" r="3.43035" fill="#E0E0E0"/>
<circle id="Oval_259" cx="152.405" cy="215.132" r="3.43035" fill="#E0E0E0"/>
<circle id="Oval_260" cx="152.405" cy="226.893" r="3.43035" fill="#E0E0E0"/>
<circle id="Oval_261" cx="152.405" cy="239.634" r="3.43035" fill="#E0E0E0"/>
<circle id="Oval_262" cx="165.147" cy="3.43035" r="3.43035" fill="#E0E0E0"/>
<circle id="Oval_263" cx="165.147" cy="15.1916" r="3.43035" fill="#E0E0E0"/>
<circle id="Oval_264" cx="165.147" cy="27.9328" r="3.43035" fill="#E0E0E0"/>
<circle id="Oval_265" cx="165.147" cy="40.6741" r="3.43035" fill="#E0E0E0"/>
<circle id="Oval_266" cx="165.147" cy="52.4354" r="3.43035" fill="#E0E0E0"/>
<circle id="Oval_267" cx="165.147" cy="65.1767" r="3.43035" fill="#E0E0E0"/>
<circle id="Oval_268" cx="165.147" cy="77.9179" r="3.43035" fill="#E0E0E0"/>
<circle id="Oval_269" cx="165.147" cy="90.6592" r="3.43035" fill="#E0E0E0"/>
<circle id="Oval_270" cx="165.147" cy="102.42" r="3.43035" fill="#E0E0E0"/>
<circle id="Oval_271" cx="165.147" cy="115.162" r="3.43035" fill="#E0E0E0"/>
<circle id="Oval_272" cx="165.147" cy="127.903" r="3.43035" fill="#E0E0E0"/>
<circle id="Oval_273" cx="165.147" cy="139.664" r="3.43035" fill="#E0E0E0"/>
<circle id="Oval_274" cx="165.147" cy="152.406" r="3.43035" fill="#E0E0E0"/>
<circle id="Oval_275" cx="165.147" cy="165.147" r="3.43035" fill="#E0E0E0"/>
<circle id="Oval_276" cx="165.147" cy="176.908" r="3.43035" fill="#E0E0E0"/>
<circle id="Oval_277" cx="165.147" cy="189.649" r="3.43035" fill="#E0E0E0"/>
<circle id="Oval_278" cx="165.147" cy="202.391" r="3.43035" fill="#E0E0E0"/>
<circle id="Oval_279" cx="165.147" cy="215.132" r="3.43035" fill="#E0E0E0"/>
<circle id="Oval_280" cx="165.147" cy="226.893" r="3.43035" fill="#E0E0E0"/>
<circle id="Oval_281" cx="165.147" cy="239.634" r="3.43035" fill="#E0E0E0"/>
<circle id="Oval_282" cx="176.908" cy="3.43035" r="3.43035" fill="#E0E0E0"/>
<circle id="Oval_283" cx="176.908" cy="15.1916" r="3.43035" fill="#E0E0E0"/>
<circle id="Oval_284" cx="176.908" cy="27.9328" r="3.43035" fill="#E0E0E0"/>
<circle id="Oval_285" cx="176.908" cy="40.6741" r="3.43035" fill="#E0E0E0"/>
<circle id="Oval_286" cx="176.908" cy="52.4354" r="3.43035" fill="#E0E0E0"/>
<circle id="Oval_287" cx="176.908" cy="65.1767" r="3.43035" fill="#E0E0E0"/>
<circle id="Oval_288" cx="176.908" cy="77.9179" r="3.43035" fill="#E0E0E0"/>
<circle id="Oval_289" cx="176.908" cy="90.6592" r="3.43035" fill="#E0E0E0"/>
<circle id="Oval_290" cx="176.908" cy="102.42" r="3.43035" fill="#E0E0E0"/>
<circle id="Oval_291" cx="176.908" cy="115.162" r="3.43035" fill="#E0E0E0"/>
<circle id="Oval_292" cx="176.908" cy="127.903" r="3.43035" fill="#E0E0E0"/>
<circle id="Oval_293" cx="176.908" cy="139.664" r="3.43035" fill="#E0E0E0"/>
<circle id="Oval_294" cx="176.908" cy="152.406" r="3.43035" fill="#E0E0E0"/>
<circle id="Oval_295" cx="176.908" cy="165.147" r="3.43035" fill="#E0E0E0"/>
<circle id="Oval_296" cx="176.908" cy="176.908" r="3.43035" fill="#E0E0E0"/>
<circle id="Oval_297" cx="176.908" cy="189.649" r="3.43035" fill="#E0E0E0"/>
<circle id="Oval_298" cx="176.908" cy="202.391" r="3.43035" fill="#E0E0E0"/>
<circle id="Oval_299" cx="176.908" cy="215.132" r="3.43035" fill="#E0E0E0"/>
<circle id="Oval_300" cx="176.908" cy="226.893" r="3.43035" fill="#E0E0E0"/>
<circle id="Oval_301" cx="176.908" cy="239.634" r="3.43035" fill="#E0E0E0"/>
<circle id="Oval_302" cx="189.65" cy="3.43035" r="3.43035" fill="#E0E0E0"/>
<circle id="Oval_303" cx="189.65" cy="15.1916" r="3.43035" fill="#E0E0E0"/>
<circle id="Oval_304" cx="189.65" cy="27.9328" r="3.43035" fill="#E0E0E0"/>
<circle id="Oval_305" cx="189.65" cy="40.6741" r="3.43035" fill="#E0E0E0"/>
<circle id="Oval_306" cx="189.65" cy="52.4354" r="3.43035" fill="#E0E0E0"/>
<circle id="Oval_307" cx="189.65" cy="65.1767" r="3.43035" fill="#E0E0E0"/>
<circle id="Oval_308" cx="189.65" cy="77.9179" r="3.43035" fill="#E0E0E0"/>
<circle id="Oval_309" cx="189.65" cy="90.6592" r="3.43035" fill="#E0E0E0"/>
<circle id="Oval_310" cx="189.65" cy="102.42" r="3.43035" fill="#E0E0E0"/>
<circle id="Oval_311" cx="189.65" cy="115.162" r="3.43035" fill="#E0E0E0"/>
<circle id="Oval_312" cx="189.65" cy="127.903" r="3.43035" fill="#E0E0E0"/>
<circle id="Oval_313" cx="189.65" cy="139.664" r="3.43035" fill="#E0E0E0"/>
<circle id="Oval_314" cx="189.65" cy="152.406" r="3.43035" fill="#E0E0E0"/>
<circle id="Oval_315" cx="189.65" cy="165.147" r="3.43035" fill="#E0E0E0"/>
<circle id="Oval_316" cx="189.65" cy="176.908" r="3.43035" fill="#E0E0E0"/>
<circle id="Oval_317" cx="189.65" cy="189.649" r="3.43035" fill="#E0E0E0"/>
<circle id="Oval_318" cx="189.65" cy="202.391" r="3.43035" fill="#E0E0E0"/>
<circle id="Oval_319" cx="189.65" cy="215.132" r="3.43035" fill="#E0E0E0"/>
<circle id="Oval_320" cx="189.65" cy="226.893" r="3.43035" fill="#E0E0E0"/>
<circle id="Oval_321" cx="189.65" cy="239.634" r="3.43035" fill="#E0E0E0"/>
<circle id="Oval_322" cx="202.391" cy="3.43035" r="3.43035" fill="#E0E0E0"/>
<circle id="Oval_323" cx="202.391" cy="15.1916" r="3.43035" fill="#E0E0E0"/>
<circle id="Oval_324" cx="202.391" cy="27.9328" r="3.43035" fill="#E0E0E0"/>
<circle id="Oval_325" cx="202.391" cy="40.6741" r="3.43035" fill="#E0E0E0"/>
<circle id="Oval_326" cx="202.391" cy="52.4354" r="3.43035" fill="#E0E0E0"/>
<circle id="Oval_327" cx="202.391" cy="65.1767" r="3.43035" fill="#E0E0E0"/>
<circle id="Oval_328" cx="202.391" cy="77.9179" r="3.43035" fill="#E0E0E0"/>
<circle id="Oval_329" cx="202.391" cy="90.6592" r="3.43035" fill="#E0E0E0"/>
<circle id="Oval_330" cx="202.391" cy="102.42" r="3.43035" fill="#E0E0E0"/>
<circle id="Oval_331" cx="202.391" cy="115.162" r="3.43035" fill="#E0E0E0"/>
<circle id="Oval_332" cx="202.391" cy="127.903" r="3.43035" fill="#E0E0E0"/>
<circle id="Oval_333" cx="202.391" cy="139.664" r="3.43035" fill="#E0E0E0"/>
<circle id="Oval_334" cx="202.391" cy="152.406" r="3.43035" fill="#E0E0E0"/>
<circle id="Oval_335" cx="202.391" cy="165.147" r="3.43035" fill="#E0E0E0"/>
<circle id="Oval_336" cx="202.391" cy="176.908" r="3.43035" fill="#E0E0E0"/>
<circle id="Oval_337" cx="202.391" cy="189.649" r="3.43035" fill="#E0E0E0"/>
<circle id="Oval_338" cx="202.391" cy="202.391" r="3.43035" fill="#E0E0E0"/>
<circle id="Oval_339" cx="202.391" cy="215.132" r="3.43035" fill="#E0E0E0"/>
<circle id="Oval_340" cx="202.391" cy="226.893" r="3.43035" fill="#E0E0E0"/>
<circle id="Oval_341" cx="202.391" cy="239.634" r="3.43035" fill="#E0E0E0"/>
<circle id="Oval_342" cx="215.132" cy="3.43035" r="3.43035" fill="#E0E0E0"/>
<circle id="Oval_343" cx="215.132" cy="15.1916" r="3.43035" fill="#E0E0E0"/>
<circle id="Oval_344" cx="215.132" cy="27.9328" r="3.43035" fill="#E0E0E0"/>
<circle id="Oval_345" cx="215.132" cy="40.6741" r="3.43035" fill="#E0E0E0"/>
<circle id="Oval_346" cx="215.132" cy="52.4354" r="3.43035" fill="#E0E0E0"/>
<circle id="Oval_347" cx="215.132" cy="65.1767" r="3.43035" fill="#E0E0E0"/>
<circle id="Oval_348" cx="215.132" cy="77.9179" r="3.43035" fill="#E0E0E0"/>
<circle id="Oval_349" cx="215.132" cy="90.6592" r="3.43035" fill="#E0E0E0"/>
<circle id="Oval_350" cx="215.132" cy="102.42" r="3.43035" fill="#E0E0E0"/>
<circle id="Oval_351" cx="215.132" cy="115.162" r="3.43035" fill="#E0E0E0"/>
<circle id="Oval_352" cx="215.132" cy="127.903" r="3.43035" fill="#E0E0E0"/>
<circle id="Oval_353" cx="215.132" cy="139.664" r="3.43035" fill="#E0E0E0"/>
<circle id="Oval_354" cx="215.132" cy="152.406" r="3.43035" fill="#E0E0E0"/>
<circle id="Oval_355" cx="215.132" cy="165.147" r="3.43035" fill="#E0E0E0"/>
<circle id="Oval_356" cx="215.132" cy="176.908" r="3.43035" fill="#E0E0E0"/>
<circle id="Oval_357" cx="215.132" cy="189.649" r="3.43035" fill="#E0E0E0"/>
<circle id="Oval_358" cx="215.132" cy="202.391" r="3.43035" fill="#E0E0E0"/>
<circle id="Oval_359" cx="215.132" cy="215.132" r="3.43035" fill="#E0E0E0"/>
<circle id="Oval_360" cx="215.132" cy="226.893" r="3.43035" fill="#E0E0E0"/>
<circle id="Oval_361" cx="215.132" cy="239.634" r="3.43035" fill="#E0E0E0"/>
<circle id="Oval_362" cx="226.893" cy="3.43035" r="3.43035" fill="#E0E0E0"/>
<circle id="Oval_363" cx="226.893" cy="15.1916" r="3.43035" fill="#E0E0E0"/>
<circle id="Oval_364" cx="226.893" cy="27.9328" r="3.43035" fill="#E0E0E0"/>
<circle id="Oval_365" cx="226.893" cy="40.6741" r="3.43035" fill="#E0E0E0"/>
<circle id="Oval_366" cx="226.893" cy="52.4354" r="3.43035" fill="#E0E0E0"/>
<circle id="Oval_367" cx="226.893" cy="65.1767" r="3.43035" fill="#E0E0E0"/>
<circle id="Oval_368" cx="226.893" cy="77.9179" r="3.43035" fill="#E0E0E0"/>
<circle id="Oval_369" cx="226.893" cy="90.6592" r="3.43035" fill="#E0E0E0"/>
<circle id="Oval_370" cx="226.893" cy="102.42" r="3.43035" fill="#E0E0E0"/>
<circle id="Oval_371" cx="226.893" cy="115.162" r="3.43035" fill="#E0E0E0"/>
<circle id="Oval_372" cx="226.893" cy="127.903" r="3.43035" fill="#E0E0E0"/>
<circle id="Oval_373" cx="226.893" cy="139.664" r="3.43035" fill="#E0E0E0"/>
<circle id="Oval_374" cx="226.893" cy="152.406" r="3.43035" fill="#E0E0E0"/>
<circle id="Oval_375" cx="226.893" cy="165.147" r="3.43035" fill="#E0E0E0"/>
<circle id="Oval_376" cx="226.893" cy="176.908" r="3.43035" fill="#E0E0E0"/>
<circle id="Oval_377" cx="226.893" cy="189.649" r="3.43035" fill="#E0E0E0"/>
<circle id="Oval_378" cx="226.893" cy="202.391" r="3.43035" fill="#E0E0E0"/>
<circle id="Oval_379" cx="226.893" cy="215.132" r="3.43035" fill="#E0E0E0"/>
<circle id="Oval_380" cx="226.893" cy="226.893" r="3.43035" fill="#E0E0E0"/>
<circle id="Oval_381" cx="226.893" cy="239.634" r="3.43035" fill="#E0E0E0"/>
<circle id="Oval_382" cx="239.634" cy="3.43035" r="3.43035" fill="#E0E0E0"/>
<circle id="Oval_383" cx="239.634" cy="15.1916" r="3.43035" fill="#E0E0E0"/>
<circle id="Oval_384" cx="239.634" cy="27.9328" r="3.43035" fill="#E0E0E0"/>
<circle id="Oval_385" cx="239.634" cy="40.6741" r="3.43035" fill="#E0E0E0"/>
<circle id="Oval_386" cx="239.634" cy="52.4354" r="3.43035" fill="#E0E0E0"/>
<circle id="Oval_387" cx="239.634" cy="65.1767" r="3.43035" fill="#E0E0E0"/>
<circle id="Oval_388" cx="239.634" cy="77.9179" r="3.43035" fill="#E0E0E0"/>
<circle id="Oval_389" cx="239.634" cy="90.6592" r="3.43035" fill="#E0E0E0"/>
<circle id="Oval_390" cx="239.634" cy="102.42" r="3.43035" fill="#E0E0E0"/>
<circle id="Oval_391" cx="239.634" cy="115.162" r="3.43035" fill="#E0E0E0"/>
<circle id="Oval_392" cx="239.634" cy="127.903" r="3.43035" fill="#E0E0E0"/>
<circle id="Oval_393" cx="239.634" cy="139.664" r="3.43035" fill="#E0E0E0"/>
<circle id="Oval_394" cx="239.634" cy="152.406" r="3.43035" fill="#E0E0E0"/>
<circle id="Oval_395" cx="239.634" cy="165.147" r="3.43035" fill="#E0E0E0"/>
<circle id="Oval_396" cx="239.634" cy="176.908" r="3.43035" fill="#E0E0E0"/>
<circle id="Oval_397" cx="239.634" cy="189.649" r="3.43035" fill="#E0E0E0"/>
<circle id="Oval_398" cx="239.634" cy="202.391" r="3.43035" fill="#E0E0E0"/>
<circle id="Oval_399" cx="239.634" cy="215.132" r="3.43035" fill="#E0E0E0"/>
<circle id="Oval_400" cx="239.634" cy="226.893" r="3.43035" fill="#E0E0E0"/>
<circle id="Oval_401" cx="239.634" cy="239.634" r="3.43035" fill="#E0E0E0"/>
</g>
</g>
</svg>
