<svg width="40" height="40" viewBox="0 0 40 40" fill="none" xmlns="http://www.w3.org/2000/svg">
<g id="Group 56">
<path id="Vector" d="M31.8608 25.5796L22.4487 15.9725L26.0667 12.2796L20.6262 6.72636L17.0083 10.4193L7.59626 0.812162C6.53537 -0.27072 4.79441 -0.27072 3.73352 0.812162L0.795669 3.81091C-0.265223 4.89379 -0.265223 6.67083 0.795669 7.75371L10.2077 17.3608L0.00680066 27.7731V33.3264H5.44727L15.6482 22.9141L25.0602 32.5212C26.1211 33.604 27.8348 33.604 28.8957 32.5212L31.8336 29.5224C32.9216 28.4395 32.9216 26.6625 31.8608 25.5796ZM2.72704 5.78231L5.66489 2.78356L7.54185 4.69943L6.07293 6.19881L7.86828 8.05914L9.33721 6.55977L12.2207 9.50298L10.7517 11.0024L12.5743 12.8627L14.0432 11.3633L15.0769 12.4184L12.1391 15.3894L2.72704 5.78231ZM4.33198 30.5498H2.72704V28.9116L20.6262 10.6414L22.2311 12.2796L4.33198 30.5498ZM26.9915 30.5498L17.5795 20.9427L20.5174 17.9439L21.6055 19.0546L20.1365 20.5539L21.9591 22.4143L23.428 20.9149L26.3115 23.8581L24.8425 25.3575L26.6651 27.2178L28.134 25.7184L29.9294 27.551L26.9915 30.5498Z" fill="#FCDB05"/>
<path id="Vector_2" d="M32.232 6.16046C32.7934 5.58739 32.7934 4.69914 32.232 4.12607L28.6112 0.429799C28.0498 -0.143266 27.1797 -0.143266 26.6183 0.429799L22.8571 4.26934L28.4709 10L32.232 6.16046Z" fill="white"/>
</g>
</svg>
