<svg width="41" height="40" viewBox="0 0 41 40" fill="none" xmlns="http://www.w3.org/2000/svg">
<g id="&#240;&#159;&#166;&#134; icon &#34;calculate&#34;">
<path id="Vector" d="M32.1667 5H8.83333C7 5 5.5 6.5 5.5 8.33333V31.6667C5.5 33.5 7 35 8.83333 35H32.1667C34 35 35.5 33.5 35.5 31.6667V8.33333C35.5 6.5 34 5 32.1667 5ZM32.1667 31.6667H8.83333V8.33333H32.1667V31.6667Z" fill="#FCDB05"/>
<path id="Vector_2" d="M10.9167 12.8667H19.25V15.3667H10.9167V12.8667Z" fill="#FCDB05"/>
<path id="Vector_3" d="M22.1667 26.25H30.5V28.75H22.1667V26.25Z" fill="#FCDB05"/>
<path id="Vector_4" d="M22.1667 22.0833H30.5V24.5833H22.1667V22.0833Z" fill="#FCDB05"/>
<path id="Vector_5" d="M13.8333 30H16.3333V26.6667H19.6667V24.1667H16.3333V20.8333H13.8333V24.1667H10.5V26.6667H13.8333V30Z" fill="white"/>
<path id="Vector_6" d="M23.9833 18.25L26.3333 15.9L28.6833 18.25L30.45 16.4833L28.1 14.1167L30.45 11.7667L28.6833 10L26.3333 12.35L23.9833 10L22.2166 11.7667L24.5666 14.1167L22.2166 16.4833L23.9833 18.25Z" fill="white"/>
</g>
</svg>
