<svg width="40" height="40" viewBox="0 0 40 40" fill="none" xmlns="http://www.w3.org/2000/svg">
<g id="&#240;&#159;&#166;&#134; icon &#34;account balance wallet&#34;">
<g id="Group 60">
<path id="Vector" d="M35 12.1333V8.33333C35 6.5 33.5 5 31.6667 5H8.33333C6.48333 5 5 6.5 5 8.33333V31.6667C5 33.5 6.48333 35 8.33333 35H31.6667C33.5 35 35 33.5 35 31.6667V27.8667C35.9833 27.2833 36.6667 26.2333 36.6667 25V15C36.6667 13.7667 35.9833 12.7167 35 12.1333ZM33.3333 15V25H21.6667V15H33.3333ZM8.33333 31.6667V8.33333H31.6667V11.6667H21.6667C19.8333 11.6667 18.3333 13.1667 18.3333 15V25C18.3333 26.8333 19.8333 28.3333 21.6667 28.3333H31.6667V31.6667H8.33333Z" fill="#FCDB05"/>
<path id="Vector_2" d="M26.6666 22.5C28.0473 22.5 29.1666 21.3807 29.1666 20C29.1666 18.6193 28.0473 17.5 26.6666 17.5C25.2859 17.5 24.1666 18.6193 24.1666 20C24.1666 21.3807 25.2859 22.5 26.6666 22.5Z" fill="white"/>
</g>
</g>
</svg>
