<svg width="48" height="48" viewBox="0 0 48 48" fill="none" xmlns="http://www.w3.org/2000/svg">
<g id="&#240;&#159;&#166;&#134; icon &#34;arrow circle down&#34;">
<path id="Vector" d="M23.88 38.208C15.9757 38.208 9.552 31.7843 9.552 23.88C9.552 15.9757 15.9757 9.552 23.88 9.552C31.7843 9.552 38.208 15.9757 38.208 23.88C38.208 31.7843 31.7843 38.208 23.88 38.208ZM23.88 40.596C33.1216 40.596 40.596 33.1216 40.596 23.88C40.596 14.6384 33.1216 7.164 23.88 7.164C14.6384 7.164 7.164 14.6384 7.164 23.88C7.164 33.1216 14.6384 40.596 23.88 40.596ZM25.074 23.88V16.716H22.686V23.88H16.716L23.88 31.044L31.044 23.88H25.074Z" fill="#FCDB05"/>
</g>
</svg>
